<svg xmlns="http://www.w3.org/2000/svg" xmlns:xlink="http://www.w3.org/1999/xlink" xmlns:s="https://github.com/nturley/netlistsvg" width="515" height="279">
  <style>svg {
    stroke:#000;
    fill:none;
  }
  text {
    fill:#000;
    stroke:none;
    font-size:10px;
    font-weight: bold;
    font-family: "Courier New", monospace;
  }
  .nodelabel {
    text-anchor: middle;
  }
  .inputPortLabel {
    text-anchor: end;
  }
  .splitjoinBody {
    fill:#000;
  }</style>
  <g s:type="mux" transform="translate(406,79.5)" s:width="20" s:height="40" id="cell_$ternary$src/tt_um_pedometer.v:78$76">
    <s:alias val="$pmux"/>
    <s:alias val="$mux"/>
    <s:alias val="$_MUX_"/>
    <path d="M0,0 L20,10 L20,30 L0,40 Z" class="cell_$ternary$src/tt_um_pedometer.v:78$76"/>
    <g s:x="0" s:y="10" s:pid="A"/>
    <g s:x="0" s:y="30" s:pid="B"/>
    <g s:x="10" s:y="35" s:pid="S"/>
    <g s:x="20" s:y="20" s:pid="Y"/>
  </g>
  <g s:type="generic" transform="translate(196,164)" s:width="30" s:height="40" id="cell_u_core">
    <text x="15" y="-4" class="nodelabel cell_u_core" s:attribute="ref">pedometer_core</text>
    <rect width="30" height="100" s:generic="body" class="cell_u_core"/>
    <g transform="translate(0,10)" s:x="0" s:y="10" s:pid="in0" id="port_u_core~clk">
      <text x="-3" y="-4" class="inputPortLabel cell_u_core">clk</text>
    </g>
    <g transform="translate(0,30)" s:x="0" s:y="10" s:pid="in0" id="port_u_core~rst_n">
      <text x="-3" y="-4" class="inputPortLabel cell_u_core">rst_n</text>
    </g>
    <g transform="translate(0,50)" s:x="0" s:y="10" s:pid="in0" id="port_u_core~spi_clk">
      <text x="-3" y="-4" class="inputPortLabel cell_u_core">spi_clk</text>
    </g>
    <g transform="translate(0,70)" s:x="0" s:y="10" s:pid="in0" id="port_u_core~spi_cs_n">
      <text x="-3" y="-4" class="inputPortLabel cell_u_core">spi_cs_n</text>
    </g>
    <g transform="translate(0,90)" s:x="0" s:y="10" s:pid="in0" id="port_u_core~spi_mosi">
      <text x="-3" y="-4" class="inputPortLabel cell_u_core">spi_mosi</text>
    </g>
    <g transform="translate(30,10)" s:x="30" s:y="10" s:pid="out0" id="port_u_core~artifact_flag">
      <text x="5" y="-4" style="fill:#000; stroke:none" class="cell_u_core">artifact_flag</text>
    </g>
    <g transform="translate(30,30)" s:x="30" s:y="10" s:pid="out0" id="port_u_core~step_count">
      <text x="5" y="-4" style="fill:#000; stroke:none" class="cell_u_core">step_count</text>
    </g>
    <g transform="translate(30,50)" s:x="30" s:y="10" s:pid="out0" id="port_u_core~step_detected">
      <text x="5" y="-4" style="fill:#000; stroke:none" class="cell_u_core">step_detected</text>
    </g>
  </g>
  <g s:type="inputExt" transform="translate(12,194.5)" s:width="30" s:height="20" id="cell_ui_in">
    <text x="15" y="-4" class="nodelabel cell_ui_in" s:attribute="ref">ui_in</text>
    <s:alias val="$_inputExt_"/>
    <path d="M0,0 L0,20 L15,20 L30,10 L15,0 Z" class="cell_ui_in"/>
    <g s:x="28" s:y="10" s:pid="Y"/>
  </g>
  <g s:type="outputExt" transform="translate(461,89.5)" s:width="30" s:height="20" id="cell_uo_out">
    <text x="15" y="-4" class="nodelabel cell_uo_out" s:attribute="ref">uo_out</text>
    <s:alias val="$_outputExt_"/>
    <path d="M30,0 L30,20 L15,20 L0,10 L15,0 Z" class="cell_uo_out"/>
    <g s:x="0" s:y="10" s:pid="A"/>
  </g>
  <g s:type="inputExt" transform="translate(54,22)" s:width="30" s:height="20" id="cell_uio_in">
    <text x="15" y="-4" class="nodelabel cell_uio_in" s:attribute="ref">uio_in</text>
    <s:alias val="$_inputExt_"/>
    <path d="M0,0 L0,20 L15,20 L30,10 L15,0 Z" class="cell_uio_in"/>
    <g s:x="28" s:y="10" s:pid="Y"/>
  </g>
  <g s:type="outputExt" transform="translate(461,154.5)" s:width="30" s:height="20" id="cell_uio_out">
    <text x="15" y="-4" class="nodelabel cell_uio_out" s:attribute="ref">uio_out</text>
    <s:alias val="$_outputExt_"/>
    <path d="M30,0 L30,20 L15,20 L0,10 L15,0 Z" class="cell_uio_out"/>
    <g s:x="0" s:y="10" s:pid="A"/>
  </g>
  <g s:type="outputExt" transform="translate(167,22)" s:width="30" s:height="20" id="cell_uio_oe">
    <text x="15" y="-4" class="nodelabel cell_uio_oe" s:attribute="ref">uio_oe</text>
    <s:alias val="$_outputExt_"/>
    <path d="M30,0 L30,20 L15,20 L0,10 L15,0 Z" class="cell_uio_oe"/>
    <g s:x="0" s:y="10" s:pid="A"/>
  </g>
  <g s:type="inputExt" transform="translate(12,22)" s:width="30" s:height="20" id="cell_ena">
    <text x="15" y="-4" class="nodelabel cell_ena" s:attribute="ref">ena</text>
    <s:alias val="$_inputExt_"/>
    <path d="M0,0 L0,20 L15,20 L30,10 L15,0 Z" class="cell_ena"/>
    <g s:x="28" s:y="10" s:pid="Y"/>
  </g>
  <g s:type="inputExt" transform="translate(77,64)" s:width="30" s:height="20" id="cell_clk">
    <text x="15" y="-4" class="nodelabel cell_clk" s:attribute="ref">clk</text>
    <s:alias val="$_inputExt_"/>
    <path d="M0,0 L0,20 L15,20 L30,10 L15,0 Z" class="cell_clk"/>
    <g s:x="28" s:y="10" s:pid="Y"/>
  </g>
  <g s:type="inputExt" transform="translate(77,129)" s:width="30" s:height="20" id="cell_rst_n">
    <text x="15" y="-4" class="nodelabel cell_rst_n" s:attribute="ref">rst_n</text>
    <s:alias val="$_inputExt_"/>
    <path d="M0,0 L0,20 L15,20 L30,10 L15,0 Z" class="cell_rst_n"/>
    <g s:x="28" s:y="10" s:pid="Y"/>
  </g>
  <g s:type="constant" transform="translate(341,195.5)" s:width="30" s:height="20" id="cell_000000">
    <text x="15" y="-4" class="nodelabel cell_000000" s:attribute="ref">0x0</text>
    <s:alias val="$_constant_"/>
    <rect width="30" height="20" class="cell_000000"/>
    <g s:x="30" s:y="10" s:pid="Y"/>
  </g>
  <g s:type="constant" transform="translate(102,22)" s:width="30" s:height="20" id="cell_00000011">
    <text x="15" y="-4" class="nodelabel cell_00000011" s:attribute="ref">0x3</text>
    <s:alias val="$_constant_"/>
    <rect width="30" height="20" class="cell_00000011"/>
    <g s:x="30" s:y="10" s:pid="Y"/>
  </g>
  <g s:type="join" transform="translate(413.5,144)" s:width="4" s:height="40" id="cell_$join$,26,27,47,48,49,50,51,52,">
    <rect width="5" height="60" class="splitjoinBody" s:generic="body"/>
    <s:alias val="$_join_"/>
    <g s:x="5" s:y="20" s:pid="out"/>
    <g transform="translate(0,10)" s:x="0" s:y="10" s:pid="in0">
      <text x="-3" y="-4" class="inputPortLabel">0</text>
    </g>
    <g transform="translate(0,30)" s:x="0" s:y="10" s:pid="in0">
      <text x="-3" y="-4" class="inputPortLabel">1</text>
    </g>
    <g transform="translate(0,50)" s:x="0" s:y="10" s:pid="in0">
      <text x="-3" y="-4" class="inputPortLabel">2:7</text>
    </g>
  </g>
  <g s:type="split" transform="translate(347,79)" s:width="5" s:height="40" id="cell_$split$,31,32,33,34,35,36,37,38,39,40,41,42,43,44,45,46,">
    <rect width="5" height="40" class="splitjoinBody" s:generic="body"/>
    <s:alias val="$_split_"/>
    <g s:x="0" s:y="20" s:pid="in"/>
    <g transform="translate(4,10)" s:x="4" s:y="10" s:pid="out0">
      <text x="5" y="-4">0:7</text>
    </g>
    <g transform="translate(4,30)" s:x="4" s:y="10" s:pid="out0">
      <text x="5" y="-4">8:15</text>
    </g>
  </g>
  <g s:type="split" transform="translate(92.8,184)" s:width="5" s:height="40" id="cell_$split$,2,3,4,5,6,7,8,9,">
    <rect width="5" height="80" class="splitjoinBody" s:generic="body"/>
    <s:alias val="$_split_"/>
    <g s:x="0" s:y="20" s:pid="in"/>
    <g transform="translate(4,10)" s:x="4" s:y="10" s:pid="out0">
      <text x="5" y="-4">3</text>
    </g>
    <g transform="translate(4,30)" s:x="4" s:y="10" s:pid="out0">
      <text x="5" y="-4">0</text>
    </g>
    <g transform="translate(4,50)" s:x="4" s:y="10" s:pid="out0">
      <text x="5" y="-4">2</text>
    </g>
    <g transform="translate(4,70)" s:x="4" s:y="10" s:pid="out0">
      <text x="5" y="-4">1</text>
    </g>
  </g>
  <line x1="352" x2="406" y1="89.5" y2="89.5" class="net_31,32,33,34,35,36,37,38"/>
  <line x1="352" x2="406" y1="109.5" y2="109.5" class="net_39,40,41,42,43,44,45,46"/>
  <line x1="97.8" x2="117" y1="194.5" y2="194.5" class="net_5"/>
  <line x1="117" x2="117" y1="194.5" y2="134" class="net_5"/>
  <line x1="117" x2="416" y1="134" y2="134" class="net_5"/>
  <line x1="416" x2="416" y1="134" y2="114.5" class="net_5"/>
  <line x1="105" x2="137" y1="74" y2="74" class="net_29"/>
  <line x1="137" x2="137" y1="74" y2="174.5" class="net_29"/>
  <line x1="137" x2="196" y1="174.5" y2="174.5" class="net_29"/>
  <line x1="105" x2="127" y1="139" y2="139" class="net_30"/>
  <line x1="127" x2="127" y1="139" y2="194.5" class="net_30"/>
  <line x1="127" x2="196" y1="194.5" y2="194.5" class="net_30"/>
  <line x1="97.8" x2="196" y1="214.5" y2="214.5" class="net_2"/>
  <line x1="97.8" x2="196" y1="234.5" y2="234.5" class="net_4"/>
  <line x1="97.8" x2="196" y1="254.5" y2="254.5" class="net_3"/>
  <line x1="426" x2="461" y1="99.5" y2="99.5" class="net_10,11,12,13,14,15,16,17"/>
  <line x1="419.5" x2="461" y1="164.5" y2="164.5" class="net_26,27,47,48,49,50,51,52"/>
  <line x1="132" x2="167" y1="32" y2="32" class="net_53,54,55,56,57,58,59,60"/>
  <line x1="227" x2="326" y1="214.5" y2="214.5" class="net_26"/>
  <line x1="326" x2="326" y1="214.5" y2="163.5" class="net_26"/>
  <line x1="326" x2="381" y1="163.5" y2="163.5" class="net_26"/>
  <line x1="381" x2="381" y1="163.5" y2="154.5" class="net_26"/>
  <line x1="381" x2="413.5" y1="154.5" y2="154.5" class="net_26"/>
  <line x1="227" x2="413.5" y1="174.5" y2="174.5" class="net_27"/>
  <line x1="371" x2="381" y1="205.5" y2="205.5" class="net_47,48,49,50,51,52"/>
  <line x1="381" x2="381" y1="205.5" y2="194.5" class="net_47,48,49,50,51,52"/>
  <line x1="381" x2="413.5" y1="194.5" y2="194.5" class="net_47,48,49,50,51,52"/>
  <line x1="227" x2="316" y1="194.5" y2="194.5" class="net_31,32,33,34,35,36,37,38,39,40,41,42,43,44,45,46"/>
  <line x1="316" x2="316" y1="194.5" y2="99.5" class="net_31,32,33,34,35,36,37,38,39,40,41,42,43,44,45,46"/>
  <line x1="316" x2="347" y1="99.5" y2="99.5" class="net_31,32,33,34,35,36,37,38,39,40,41,42,43,44,45,46"/>
  <line x1="40" x2="92.8" y1="204.5" y2="204.5" class="net_2,3,4,5,6,7,8,9"/>
</svg>
